# xmcd
#
# Track frame offsets:
#	150
#	12400
#	24074
#	37607
#	53424
#	67311
#	78837
#	92908
#	106242
#	121706
#
# Disc length: 1798 seconds
#
# Revision: 0
# Processed by: cddbd v1.5.2PL0 Copyright (c) Steve Scherf et al.
# Submitted via: EasyCDDAExtractor 16.0.6.1
#
DISCID=6707040a
DTITLE=Συλλογικός δίσκος - Λαϊκό τραγούδι 1954-1967, 1965-1
DYEAR=2008
DGENRE=Λαϊκή
TTITLE0=Μοσχολιού Βίκυ - Τα δειλινά [Γιώργος Ζαμπέτας-Χαράλαμπος Βασιλειάδης]
TTITLE1=Γααβαλάς Πάνος-Κούρτη Ρία - Μπορεί να έφυγες [Πάνος Γαβαλάς-Βασίλης Βα
TTITLE1=σιλειάδης]
TTITLE2=Τσαουσάκης Πρόδρομος - Γιατί καλέ γειτόνισσα [Πρόδρομου Τσαουσάκη-Λ. Μ
TTITLE2=πουρνέλη]
TTITLE3=Καζαντζίδης Στέλιος-Μαρινέλλα - Πριν χαράξει θα φύγω [Μπάμπης Μπακάλης
TTITLE3=Φώτης Ζησούλης]
TTITLE4=Τσετίνης Μπάμπης-Χρηστάκης - Έχω δικαίωμα, να σ' αγαπώ [Βασίλης Βασιλε
TTITLE4=ιάδης-Πυθαγόρας]
TTITLE5=Μαρκάκης Μπάμπης-Κάρολ Κατερίνα-Παπαχατζή Πάολα - Ένα χαστούκι [Μπάμπη
TTITLE5=ς Μπακάλης]
TTITLE6=Γαβαλάς Πάνος - Μη μελαγχολείς [Θάνος Σοφός-Γ. Μαλλίδης]
TTITLE7=Πάνου Πόλυ - Το δικό σου γράμμα [Θάνος Σοφός-Ζάχος Δελμούζος]
TTITLE8=Μαρκάκης Μπάμπης-Κάρολ Κατερίνα-Παπαχατζή Πάολα - Δάκρυ και θολό νερό 
TTITLE8=[Μπάμπης Μαρκάκης]
TTITLE9=Αγγελόπουλος Μανώλης-Βασιλείου Αννούλα - Έχεις άνδρα μάλαμα [Νίκος Δαλ
TTITLE9=έζιος]
EXTD=
EXTT0=
EXTT1=
EXTT2=
EXTT3=
EXTT4=
EXTT5=
EXTT6=
EXTT7=
EXTT8=
EXTT9=
PLAYORDER=
